<svg xmlns="http://www.w3.org/2000/svg" width="32.003" height="52.153" viewBox="0 0 32.003 52.153"><g transform="translate(-103 -1974)"><path d="M0,0H32V52.153L16.449,46.308,0,52.153Z" transform="translate(103 1974)" fill="#faea58"/><path d="M8,1.658H8L6.584,6.134a1,1,0,0,1-.925.7l-4.35.124L4.85,9.988A1,1,0,0,1,5.166,11l-1.25,4.7L7.39,13.037a1,1,0,0,1,1.219,0l3.474,2.671h0L10.834,11a1,1,0,0,1,.316-1.016l3.541-3.032-4.35-.124a1,1,0,0,1-.925-.7L8,1.658H8m0-.5a.491.491,0,0,1,.477.349L9.893,5.983a.5.5,0,0,0,.462.349l4.35.124a.5.5,0,0,1,.311.88l-3.541,3.032a.5.5,0,0,0-.158.508l1.25,4.7a.5.5,0,0,1-.788.525L8.3,13.433a.5.5,0,0,0-.61,0L4.221,16.1a.5.5,0,0,1-.788-.525l1.25-4.7a.5.5,0,0,0-.158-.508L.984,7.336a.5.5,0,0,1,.311-.88l4.35-.124a.5.5,0,0,0,.462-.349L7.523,1.507A.491.491,0,0,1,8,1.158Z" transform="translate(111 1992)" fill="#91720e"/><path d="M13,.5A12.182,12.182,0,0,0,4.168,4.3,13.18,13.18,0,0,0,.5,13.5a13.18,13.18,0,0,0,3.668,9.2,12.162,12.162,0,0,0,17.664,0A13.18,13.18,0,0,0,25.5,13.5a13.18,13.18,0,0,0-3.668-9.2A12.182,12.182,0,0,0,13,.5M13,0A13.257,13.257,0,0,1,26,13.5,13.257,13.257,0,0,1,13,27,13.257,13.257,0,0,1,0,13.5,13.257,13.257,0,0,1,13,0Z" transform="translate(106 1987)" fill="#91720e"/><path d="M12,.5A11.189,11.189,0,0,0,3.875,4.007,12.188,12.188,0,0,0,.5,12.5a12.188,12.188,0,0,0,3.375,8.493,11.164,11.164,0,0,0,16.249,0A12.188,12.188,0,0,0,23.5,12.5a12.188,12.188,0,0,0-3.375-8.493A11.189,11.189,0,0,0,12,.5M12,0A12.258,12.258,0,0,1,24,12.5,12.258,12.258,0,0,1,12,25,12.258,12.258,0,0,1,0,12.5,12.258,12.258,0,0,1,12,0Z" transform="translate(107 1988)" fill="#91720e"/></g></svg>