<svg width="250" height="72" viewBox="0 0 250 72" fill="none" xmlns="http://www.w3.org/2000/svg">
<path d="M218.651 72C212.518 72 207.184 71 202.651 69C198.118 67 194.584 64 192.051 60C189.518 55.9333 188.118 50.8667 187.851 44.8C187.784 41.9333 187.751 39.0667 187.751 36.2C187.751 33.3333 187.784 30.4333 187.851 27.5C188.118 21.5 189.518 16.4667 192.051 12.4C194.651 8.26667 198.218 5.16667 202.751 3.1C207.284 1.03333 212.584 0 218.651 0C224.651 0 229.918 1.03333 234.451 3.1C239.051 5.16667 242.651 8.26667 245.251 12.4C247.851 16.4667 249.251 21.5 249.451 27.5C249.584 30.4333 249.651 33.3333 249.651 36.2C249.651 39.0667 249.584 41.9333 249.451 44.8C249.184 50.8667 247.784 55.9333 245.251 60C242.718 64 239.184 67 234.651 69C230.118 71 224.784 72 218.651 72ZM218.651 57.6C222.184 57.6 225.051 56.5333 227.251 54.4C229.518 52.2667 230.718 48.8667 230.851 44.2C230.984 41.2667 231.051 38.5 231.051 35.9C231.051 33.3 230.984 30.6 230.851 27.8C230.718 24.6667 230.118 22.1333 229.051 20.2C228.051 18.2 226.651 16.7333 224.851 15.8C223.051 14.8667 220.984 14.4 218.651 14.4C216.384 14.4 214.351 14.8667 212.551 15.8C210.751 16.7333 209.318 18.2 208.251 20.2C207.184 22.1333 206.584 24.6667 206.451 27.8C206.384 30.6 206.351 33.3 206.351 35.9C206.351 38.5 206.384 41.2667 206.451 44.2C206.651 48.8667 207.851 52.2667 210.051 54.4C212.251 56.5333 215.118 57.6 218.651 57.6Z" fill="#4F6170"/>
<path d="M150.978 72C144.645 72 139.178 70.9667 134.578 68.9C130.045 66.7667 126.512 63.7 123.978 59.7C121.512 55.6333 120.145 50.7 119.878 44.9C119.812 42.0333 119.778 39 119.778 35.8C119.778 32.5333 119.812 29.4333 119.878 26.5C120.145 20.8333 121.545 16.0333 124.078 12.1C126.612 8.16667 130.178 5.16667 134.778 3.1C139.378 1.03333 144.778 0 150.978 0C155.978 0 160.412 0.633333 164.278 1.9C168.145 3.1 171.378 4.73333 173.978 6.8C176.645 8.86667 178.645 11.1333 179.978 13.6C181.378 16.0667 182.112 18.5 182.178 20.9C182.245 21.5 182.045 22 181.578 22.4C181.178 22.8 180.678 23 180.078 23H165.478C164.745 23 164.178 22.9 163.778 22.7C163.445 22.4333 163.145 22.0667 162.878 21.6C162.412 20.6 161.712 19.5667 160.778 18.5C159.912 17.3667 158.678 16.4 157.078 15.6C155.545 14.8 153.512 14.4 150.978 14.4C147.178 14.4 144.178 15.4 141.978 17.4C139.845 19.4 138.678 22.6 138.478 27C138.278 32.7333 138.278 38.5333 138.478 44.4C138.678 49.0667 139.912 52.4333 142.178 54.5C144.445 56.5667 147.445 57.6 151.178 57.6C153.712 57.6 155.945 57.1667 157.878 56.3C159.878 55.4333 161.445 54.1 162.578 52.3C163.712 50.4333 164.278 48.0667 164.278 45.2V43.3H154.878C154.145 43.3 153.512 43.0667 152.978 42.6C152.512 42.0667 152.278 41.4333 152.278 40.7V33.3C152.278 32.5667 152.512 31.9667 152.978 31.5C153.512 30.9667 154.145 30.7 154.878 30.7H180.078C180.812 30.7 181.412 30.9667 181.878 31.5C182.345 31.9667 182.578 32.5667 182.578 33.3V44.7C182.578 50.4333 181.278 55.3333 178.678 59.4C176.078 63.4667 172.378 66.6 167.578 68.8C162.845 70.9333 157.312 72 150.978 72Z" fill="#4F6170"/>
<path d="M83.4869 72C77.3536 72 72.0202 71 67.4869 69C62.9536 67 59.4202 64 56.8869 60C54.3536 55.9333 52.9536 50.8667 52.6869 44.8C52.6202 41.9333 52.5869 39.0667 52.5869 36.2C52.5869 33.3333 52.6202 30.4333 52.6869 27.5C52.9536 21.5 54.3536 16.4667 56.8869 12.4C59.4869 8.26667 63.0536 5.16667 67.5869 3.1C72.1203 1.03333 77.4202 0 83.4869 0C89.4869 0 94.7536 1.03333 99.2869 3.1C103.887 5.16667 107.487 8.26667 110.087 12.4C112.687 16.4667 114.087 21.5 114.287 27.5C114.42 30.4333 114.487 33.3333 114.487 36.2C114.487 39.0667 114.42 41.9333 114.287 44.8C114.02 50.8667 112.62 55.9333 110.087 60C107.554 64 104.02 67 99.4869 69C94.9536 71 89.6202 72 83.4869 72ZM83.4869 57.6C87.0202 57.6 89.8869 56.5333 92.0869 54.4C94.3536 52.2667 95.5536 48.8667 95.6869 44.2C95.8202 41.2667 95.8869 38.5 95.8869 35.9C95.8869 33.3 95.8202 30.6 95.6869 27.8C95.5536 24.6667 94.9536 22.1333 93.8869 20.2C92.8869 18.2 91.4869 16.7333 89.6869 15.8C87.8869 14.8667 85.8202 14.4 83.4869 14.4C81.2202 14.4 79.1869 14.8667 77.3869 15.8C75.5869 16.7333 74.1536 18.2 73.0869 20.2C72.0202 22.1333 71.4202 24.6667 71.2869 27.8C71.2202 30.6 71.1869 33.3 71.1869 35.9C71.1869 38.5 71.2202 41.2667 71.2869 44.2C71.4869 48.8667 72.6869 52.2667 74.8869 54.4C77.0869 56.5333 79.9536 57.6 83.4869 57.6Z" fill="#4F6170"/>
<path d="M2.5 71C1.76667 71 1.16667 70.7667 0.700001 70.3C0.233334 69.8333 0 69.2333 0 68.5V3.5C0 2.76667 0.233334 2.16667 0.700001 1.7C1.16667 1.23333 1.76667 1 2.5 1H15.7C16.3667 1 16.9333 1.23333 17.4 1.7C17.9333 2.16667 18.2 2.76667 18.2 3.5V55.9H48.4C49.1333 55.9 49.7333 56.1667 50.2 56.7C50.7333 57.1667 51 57.7667 51 58.5V68.5C51 69.2333 50.7333 69.8333 50.2 70.3C49.7333 70.7667 49.1333 71 48.4 71H2.5Z" fill="#4F6170"/>
</svg>
