<svg width="122" height="38" viewBox="0 0 122 38" fill="none" xmlns="http://www.w3.org/2000/svg">
<path d="M14.64 29.6C11.6267 29.6 9.02667 29 6.84 27.8C4.65333 26.5733 2.96 24.8667 1.76 22.68C0.586666 20.4933 -1.16229e-06 17.92 -1.16229e-06 14.96C-1.16229e-06 12.0267 0.586666 9.44 1.76 7.2C2.96 4.93333 4.61333 3.17333 6.72 1.92C8.82667 0.639996 11.2533 -3.8147e-06 14 -3.8147e-06C16.1867 -3.8147e-06 18.16 0.413329 19.92 1.23999C21.7067 2.04 23.16 3.16 24.28 4.6C25.4267 6.04 26.1067 7.70666 26.32 9.6H22.08C21.8133 7.76 20.96 6.30666 19.52 5.24C18.08 4.14666 16.28 3.6 14.12 3.6C12.1467 3.6 10.4267 4.06666 8.96 5C7.49333 5.93333 6.34667 7.24 5.52 8.92C4.72 10.6 4.32 12.5867 4.32 14.88C4.32 17.2 4.73333 19.2 5.56 20.88C6.38667 22.5333 7.58667 23.8133 9.16 24.72C10.76 25.6 12.68 26.04 14.92 26.04C16.52 26.04 17.9333 25.8133 19.16 25.36C20.3867 24.9067 21.4533 24.24 22.36 23.36L26.48 24.92C24.9867 26.4667 23.2667 27.64 21.32 28.44C19.3733 29.2133 17.1467 29.6 14.64 29.6ZM22.24 24.92V16.08L23.48 17.32H14.88V13.8H26.48V24.92H22.24ZM32.1469 29.2V8.79999H36.1069V13.88H36.3069V29.2H32.1469ZM36.3069 18.56L35.7869 13.72C36.2669 11.9867 37.0935 10.6667 38.2669 9.76C39.4402 8.85333 40.8402 8.4 42.4669 8.4C43.0802 8.4 43.5069 8.45333 43.7469 8.56V12.48C43.6135 12.4267 43.4269 12.4 43.1869 12.4C42.9469 12.3733 42.6535 12.36 42.3069 12.36C40.3069 12.36 38.8002 12.88 37.7869 13.92C36.8002 14.96 36.3069 16.5067 36.3069 18.56ZM56.6222 29.6C54.5422 29.6 52.7155 29.1467 51.1422 28.24C49.5689 27.3067 48.3422 26.04 47.4622 24.44C46.5822 22.8133 46.1422 20.9733 46.1422 18.92C46.1422 16.84 46.5822 15.0133 47.4622 13.44C48.3689 11.8667 49.5955 10.64 51.1422 9.76C52.7155 8.85333 54.5422 8.4 56.6222 8.4C58.7289 8.4 60.5689 8.85333 62.1422 9.76C63.7155 10.64 64.9289 11.8667 65.7822 13.44C66.6622 15.0133 67.1022 16.84 67.1022 18.92C67.1022 20.9733 66.6622 22.8133 65.7822 24.44C64.9289 26.04 63.7155 27.3067 62.1422 28.24C60.5689 29.1467 58.7289 29.6 56.6222 29.6ZM56.6222 26.2C57.8755 26.2 58.9555 25.8933 59.8622 25.28C60.7955 24.6667 61.5289 23.8133 62.0622 22.72C62.5955 21.6267 62.8622 20.3467 62.8622 18.88C62.8622 16.6933 62.2755 14.9733 61.1022 13.72C59.9555 12.44 58.4622 11.8 56.6222 11.8C54.8089 11.8 53.3155 12.44 52.1422 13.72C50.9955 15 50.4222 16.72 50.4222 18.88C50.4222 20.3467 50.6755 21.6267 51.1822 22.72C51.7155 23.8133 52.4489 24.6667 53.3822 25.28C54.3422 25.8933 55.4222 26.2 56.6222 26.2ZM75.3053 29.2L69.0653 8.79999H73.3453L77.5853 25.2H76.9853L82.1453 8.79999H85.7453L90.9053 25.2H90.3453L94.5453 8.79999H98.6253L92.3853 29.2H88.7453L83.5853 13.08H84.1853L78.9453 29.2H75.3053ZM105.349 37.4L110.269 26.16L111.109 24.84L117.309 8.79999H121.629L109.629 37.4H105.349ZM110.069 29.2L101.349 8.79999H105.869L113.269 27.16L110.069 29.2Z" fill="#1D3557"/>
</svg>
