<svg width="103" height="28" viewBox="0 0 103 28" fill="none" xmlns="http://www.w3.org/2000/svg">
<circle cx="9.33333" cy="18.6663" r="8.83333" fill="#ABB8C3" stroke="#ABB8C3"/>
<circle cx="9.33331" cy="18.6666" r="5.72222" fill="white" stroke="#ABB8C3"/>
<circle cx="20.2222" cy="18.6663" r="8.83333" fill="#ABB8C3" stroke="#ABB8C3"/>
<circle cx="20.2222" cy="18.6666" r="5.72222" fill="white" stroke="#ABB8C3"/>
<circle cx="9.33333" cy="9.33333" r="8.83333" fill="#ABB8C3" stroke="#ABB8C3"/>
<circle cx="9.33331" cy="9.33355" r="5.72222" fill="white" stroke="#ABB8C3"/>
<circle cx="20.2222" cy="9.33333" r="8.83333" fill="#ABB8C3" stroke="#ABB8C3"/>
<circle cx="20.2222" cy="9.33355" r="5.72222" fill="white" stroke="#ABB8C3"/>
<path d="M37.2886 4.02344L38.0986 6.51172L38.9736 4.02344H39.7598V9H39.1445V7.01416L39.1958 4.93604L38.2764 7.61572H37.9141L37.0698 5.00781L37.1211 7.01416V9H36.5059V4.02344H37.2886ZM40.6211 7.1167C40.6211 6.8501 40.6598 6.60286 40.7373 6.375C40.8148 6.14486 40.9264 5.94548 41.0723 5.77686C41.2158 5.60824 41.3913 5.47607 41.5986 5.38037C41.806 5.28239 42.0396 5.2334 42.2993 5.2334C42.5614 5.2334 42.7961 5.28239 43.0034 5.38037C43.2131 5.47607 43.3908 5.60824 43.5366 5.77686C43.6802 5.94548 43.7907 6.14486 43.8682 6.375C43.9456 6.60286 43.9844 6.8501 43.9844 7.1167V7.19189C43.9844 7.4585 43.9456 7.70573 43.8682 7.93359C43.7907 8.16146 43.6802 8.3597 43.5366 8.52832C43.3908 8.69694 43.2142 8.8291 43.0068 8.9248C42.7995 9.02051 42.5659 9.06836 42.3062 9.06836C42.0441 9.06836 41.8083 9.02051 41.5986 8.9248C41.3913 8.8291 41.2158 8.69694 41.0723 8.52832C40.9264 8.3597 40.8148 8.16146 40.7373 7.93359C40.6598 7.70573 40.6211 7.4585 40.6211 7.19189V7.1167ZM41.2534 7.19189C41.2534 7.37419 41.2751 7.5485 41.3184 7.71484C41.3617 7.87891 41.4277 8.0236 41.5166 8.14893C41.6032 8.27425 41.7126 8.37337 41.8447 8.44629C41.9769 8.51921 42.1307 8.55566 42.3062 8.55566C42.4793 8.55566 42.6309 8.51921 42.7607 8.44629C42.8929 8.37337 43.0034 8.27425 43.0923 8.14893C43.1789 8.0236 43.2438 7.87891 43.2871 7.71484C43.3304 7.5485 43.3521 7.37419 43.3521 7.19189V7.1167C43.3521 6.93669 43.3293 6.76465 43.2837 6.60059C43.2404 6.43424 43.1755 6.28841 43.0889 6.16309C43 6.03776 42.8895 5.93864 42.7573 5.86572C42.6274 5.79053 42.4748 5.75293 42.2993 5.75293C42.1239 5.75293 41.9712 5.79053 41.8413 5.86572C41.7114 5.93864 41.6032 6.03776 41.5166 6.16309C41.4277 6.28841 41.3617 6.43424 41.3184 6.60059C41.2751 6.76465 41.2534 6.93669 41.2534 7.1167V7.19189ZM48.1372 7.19189C48.1372 7.35368 48.1247 7.50977 48.0996 7.66016C48.0768 7.80827 48.0426 7.94727 47.9971 8.07715C47.9355 8.24805 47.8547 8.40186 47.7544 8.53857C47.6564 8.67301 47.5379 8.78467 47.3989 8.87354C47.2987 8.93506 47.1882 8.98291 47.0674 9.01709C46.9489 9.05127 46.8201 9.06836 46.6812 9.06836C46.5216 9.06836 46.3758 9.04899 46.2437 9.01025C46.1138 8.97152 45.9964 8.91569 45.8916 8.84277C45.8415 8.80632 45.7936 8.76644 45.748 8.72314C45.7025 8.67985 45.6592 8.632 45.6182 8.57959L45.5874 9H45.0063V3.75H45.6387V5.69824C45.6911 5.63216 45.7492 5.57292 45.813 5.52051C45.8768 5.46582 45.9451 5.41911 46.0181 5.38037C46.1092 5.33252 46.2095 5.29606 46.3188 5.271C46.4282 5.24593 46.5467 5.2334 46.6743 5.2334C46.8338 5.2334 46.9808 5.25505 47.1152 5.29834C47.2497 5.34163 47.3716 5.40202 47.481 5.47949C47.5789 5.55241 47.6667 5.64128 47.7441 5.74609C47.8216 5.84863 47.89 5.9637 47.9492 6.09131C48.0107 6.23486 48.0575 6.39437 48.0894 6.56982C48.1213 6.743 48.1372 6.92643 48.1372 7.12012V7.19189ZM47.5049 7.12012C47.5049 7.00391 47.4969 6.89111 47.481 6.78174C47.4673 6.67008 47.4456 6.56527 47.416 6.46729C47.375 6.34652 47.3215 6.236 47.2554 6.13574C47.1893 6.03548 47.1084 5.95687 47.0127 5.8999C46.9466 5.85889 46.8726 5.82699 46.7905 5.8042C46.7085 5.78141 46.6174 5.77002 46.5171 5.77002C46.4077 5.77002 46.3075 5.78483 46.2163 5.81445C46.1252 5.8418 46.0443 5.88053 45.9736 5.93066C45.9007 5.98307 45.8358 6.0446 45.7788 6.11523C45.7241 6.18359 45.6774 6.25879 45.6387 6.34082V7.95752C45.6797 8.03955 45.7275 8.11589 45.7822 8.18652C45.8392 8.25488 45.9041 8.31527 45.9771 8.36768C46.05 8.42008 46.132 8.4611 46.2231 8.49072C46.3143 8.51807 46.4146 8.53174 46.5239 8.53174C46.6287 8.53174 46.7244 8.51921 46.811 8.49414C46.8976 8.4668 46.9751 8.42806 47.0435 8.37793C47.1346 8.31413 47.2109 8.23324 47.2725 8.13525C47.334 8.03727 47.383 7.9279 47.4194 7.80713C47.4491 7.71598 47.4707 7.618 47.4844 7.51318C47.498 7.40837 47.5049 7.30127 47.5049 7.19189V7.12012ZM49.3062 5.30176H51.1963V8.45312H52.4028V9H49.3062V8.45312H50.564V5.85205H49.3062V5.30176ZM50.4819 4.33105C50.4819 4.27637 50.4899 4.2251 50.5059 4.17725C50.5241 4.12939 50.5514 4.08838 50.5879 4.0542C50.6175 4.02458 50.6551 4.00179 50.7007 3.98584C50.7485 3.96761 50.8021 3.9585 50.8613 3.9585C50.9206 3.9585 50.973 3.96761 51.0186 3.98584C51.0641 4.00179 51.1017 4.02458 51.1313 4.0542C51.1678 4.0861 51.1951 4.12598 51.2134 4.17383C51.2316 4.22168 51.2407 4.27409 51.2407 4.33105C51.2407 4.43359 51.2088 4.51904 51.145 4.5874C51.0812 4.65576 50.9867 4.68994 50.8613 4.68994C50.7337 4.68994 50.638 4.65576 50.5742 4.5874C50.5127 4.51904 50.4819 4.43359 50.4819 4.33105ZM53.5103 3.75H55.4004V8.45312H56.6069V9H53.5103V8.45312H54.7681V4.30029H53.5103V3.75ZM59.249 9.06836C58.9893 9.06836 58.75 9.02393 58.5312 8.93506C58.3148 8.84619 58.1291 8.72201 57.9741 8.5625C57.8192 8.40299 57.6984 8.21387 57.6118 7.99512C57.5252 7.77637 57.4819 7.53825 57.4819 7.28076V7.13721C57.4819 6.8387 57.5298 6.5721 57.6255 6.3374C57.7212 6.10042 57.8488 5.8999 58.0083 5.73584C58.1655 5.57406 58.3444 5.44987 58.5449 5.36328C58.7477 5.27669 58.9551 5.2334 59.167 5.2334C59.4336 5.2334 59.666 5.28011 59.8643 5.37354C60.0648 5.46468 60.2311 5.59115 60.3633 5.75293C60.4954 5.91699 60.5934 6.10954 60.6572 6.33057C60.7233 6.5516 60.7563 6.79085 60.7563 7.04834V7.33203H58.1143V7.35596C58.1302 7.53597 58.1655 7.69434 58.2202 7.83105C58.2772 7.96777 58.3547 8.08854 58.4526 8.19336C58.5529 8.30501 58.6737 8.39274 58.8149 8.45654C58.9562 8.52035 59.1123 8.55225 59.2832 8.55225C59.5088 8.55225 59.7093 8.50667 59.8848 8.41553C60.0602 8.32438 60.2061 8.20361 60.3223 8.05322L60.7085 8.354C60.5854 8.54085 60.4009 8.70719 60.1548 8.85303C59.911 8.99658 59.609 9.06836 59.249 9.06836ZM59.167 5.75293C59.0394 5.75293 58.9186 5.77686 58.8047 5.82471C58.6908 5.87028 58.5882 5.9375 58.4971 6.02637C58.4059 6.11751 58.3285 6.22917 58.2646 6.36133C58.2031 6.49121 58.1598 6.6416 58.1348 6.8125H60.124V6.78174C60.124 6.66781 60.1024 6.5459 60.0591 6.41602C60.0158 6.28385 59.9554 6.16992 59.8779 6.07422C59.8005 5.97852 59.7025 5.90104 59.584 5.8418C59.4678 5.78255 59.3288 5.75293 59.167 5.75293ZM39.3325 13.6997H37.2544V15.4634H39.6777V16H36.6221V11.0234H39.647V11.5635H37.2544V13.1631H39.3325V13.6997ZM40.7988 16V12.3018H41.3662L41.4106 12.8486C41.4653 12.7712 41.5246 12.7005 41.5884 12.6367C41.6545 12.5706 41.724 12.5137 41.7969 12.4658C41.9062 12.3929 42.0247 12.3371 42.1523 12.2983C42.2822 12.2573 42.4189 12.2357 42.5625 12.2334C42.7562 12.2334 42.9316 12.2607 43.0889 12.3154C43.2484 12.3701 43.384 12.4556 43.4956 12.5718C43.6073 12.688 43.6927 12.8361 43.752 13.0161C43.8135 13.1938 43.8442 13.4058 43.8442 13.6519V16H43.2119V13.6655C43.2119 13.5015 43.1937 13.3625 43.1572 13.2485C43.1208 13.1346 43.0672 13.0423 42.9966 12.9717C42.9237 12.901 42.8348 12.8498 42.73 12.8179C42.6274 12.786 42.509 12.77 42.3745 12.77C42.2583 12.77 42.1501 12.7871 42.0498 12.8213C41.9495 12.8532 41.8573 12.8976 41.7729 12.9546C41.7046 13.0047 41.6408 13.0628 41.5815 13.1289C41.5246 13.195 41.4744 13.2679 41.4312 13.3477V16H40.7988ZM44.8867 14.1201C44.8867 13.8444 44.9198 13.5915 44.9858 13.3613C45.0542 13.1289 45.1522 12.9295 45.2798 12.7632C45.4074 12.5968 45.5623 12.467 45.7446 12.3735C45.9269 12.2801 46.1331 12.2334 46.3633 12.2334C46.5114 12.2334 46.647 12.2505 46.77 12.2847C46.8953 12.3188 47.0081 12.369 47.1084 12.4351C47.1631 12.4692 47.2144 12.5091 47.2622 12.5547C47.3123 12.6003 47.359 12.6504 47.4023 12.7051L47.4331 12.3018H48.0073V15.9214C48.0073 16.1652 47.9686 16.3817 47.8911 16.5708C47.8159 16.7599 47.71 16.9206 47.5732 17.0527C47.4342 17.1849 47.269 17.2852 47.0776 17.3535C46.8862 17.4219 46.6743 17.4561 46.4419 17.4561C46.3462 17.4561 46.2368 17.4447 46.1138 17.4219C45.9907 17.4014 45.8665 17.366 45.7412 17.3159C45.6136 17.2681 45.4906 17.2031 45.3721 17.1211C45.2559 17.0391 45.1556 16.9377 45.0713 16.8169L45.3994 16.4375C45.4769 16.5309 45.5566 16.6095 45.6387 16.6733C45.7207 16.7394 45.8039 16.7918 45.8882 16.8306C45.9725 16.8693 46.0568 16.8966 46.1411 16.9126C46.2254 16.9308 46.3097 16.9399 46.394 16.9399C46.5444 16.9399 46.68 16.9183 46.8008 16.875C46.9215 16.8317 47.0252 16.7679 47.1118 16.6836C47.1961 16.6016 47.2611 16.499 47.3066 16.376C47.3522 16.2529 47.375 16.1117 47.375 15.9521V15.6343C47.3271 15.689 47.2759 15.7391 47.2212 15.7847C47.1688 15.8302 47.1118 15.8701 47.0503 15.9043C46.9546 15.9567 46.8486 15.9966 46.7324 16.0239C46.6162 16.0535 46.4909 16.0684 46.3564 16.0684C46.1309 16.0684 45.9269 16.0205 45.7446 15.9248C45.5623 15.8291 45.4085 15.6969 45.2832 15.5283C45.1556 15.3597 45.0576 15.1615 44.9893 14.9336C44.9209 14.7035 44.8867 14.4562 44.8867 14.1919V14.1201ZM45.519 14.1919C45.519 14.3719 45.5373 14.5428 45.5737 14.7046C45.6125 14.8664 45.6729 15.0088 45.7549 15.1318C45.8346 15.2549 45.9372 15.3529 46.0625 15.4258C46.1878 15.4964 46.3382 15.5317 46.5137 15.5317C46.623 15.5317 46.721 15.5192 46.8076 15.4941C46.8965 15.4668 46.9762 15.4292 47.0469 15.3813C47.1152 15.3335 47.1768 15.2765 47.2314 15.2104C47.2861 15.1444 47.334 15.0715 47.375 14.9917V13.2964C47.334 13.2189 47.2861 13.1483 47.2314 13.0845C47.1768 13.0207 47.1141 12.9648 47.0435 12.917C46.9728 12.8714 46.8942 12.8361 46.8076 12.811C46.721 12.7837 46.6253 12.77 46.5205 12.77C46.3428 12.77 46.1901 12.8065 46.0625 12.8794C45.9372 12.9523 45.8346 13.0503 45.7549 13.1733C45.6729 13.2987 45.6125 13.4434 45.5737 13.6074C45.5373 13.7692 45.519 13.9401 45.519 14.1201V14.1919ZM49.3062 12.3018H51.1963V15.4531H52.4028V16H49.3062V15.4531H50.564V12.8521H49.3062V12.3018ZM50.4819 11.3311C50.4819 11.2764 50.4899 11.2251 50.5059 11.1772C50.5241 11.1294 50.5514 11.0884 50.5879 11.0542C50.6175 11.0246 50.6551 11.0018 50.7007 10.9858C50.7485 10.9676 50.8021 10.9585 50.8613 10.9585C50.9206 10.9585 50.973 10.9676 51.0186 10.9858C51.0641 11.0018 51.1017 11.0246 51.1313 11.0542C51.1678 11.0861 51.1951 11.126 51.2134 11.1738C51.2316 11.2217 51.2407 11.2741 51.2407 11.3311C51.2407 11.4336 51.2088 11.519 51.145 11.5874C51.0812 11.6558 50.9867 11.6899 50.8613 11.6899C50.7337 11.6899 50.638 11.6558 50.5742 11.5874C50.5127 11.519 50.4819 11.4336 50.4819 11.3311ZM53.4111 16V12.3018H53.9785L54.0229 12.8486C54.0776 12.7712 54.1369 12.7005 54.2007 12.6367C54.2668 12.5706 54.3363 12.5137 54.4092 12.4658C54.5186 12.3929 54.637 12.3371 54.7646 12.2983C54.8945 12.2573 55.0312 12.2357 55.1748 12.2334C55.3685 12.2334 55.5439 12.2607 55.7012 12.3154C55.8607 12.3701 55.9963 12.4556 56.1079 12.5718C56.2196 12.688 56.305 12.8361 56.3643 13.0161C56.4258 13.1938 56.4565 13.4058 56.4565 13.6519V16H55.8242V13.6655C55.8242 13.5015 55.806 13.3625 55.7695 13.2485C55.7331 13.1346 55.6795 13.0423 55.6089 12.9717C55.536 12.901 55.4471 12.8498 55.3423 12.8179C55.2397 12.786 55.1213 12.77 54.9868 12.77C54.8706 12.77 54.7624 12.7871 54.6621 12.8213C54.5618 12.8532 54.4696 12.8976 54.3853 12.9546C54.3169 13.0047 54.2531 13.0628 54.1938 13.1289C54.1369 13.195 54.0868 13.2679 54.0435 13.3477V16H53.4111ZM59.249 16.0684C58.9893 16.0684 58.75 16.0239 58.5312 15.9351C58.3148 15.8462 58.1291 15.722 57.9741 15.5625C57.8192 15.403 57.6984 15.2139 57.6118 14.9951C57.5252 14.7764 57.4819 14.5382 57.4819 14.2808V14.1372C57.4819 13.8387 57.5298 13.5721 57.6255 13.3374C57.7212 13.1004 57.8488 12.8999 58.0083 12.7358C58.1655 12.5741 58.3444 12.4499 58.5449 12.3633C58.7477 12.2767 58.9551 12.2334 59.167 12.2334C59.4336 12.2334 59.666 12.2801 59.8643 12.3735C60.0648 12.4647 60.2311 12.5911 60.3633 12.7529C60.4954 12.917 60.5934 13.1095 60.6572 13.3306C60.7233 13.5516 60.7563 13.7909 60.7563 14.0483V14.332H58.1143V14.356C58.1302 14.536 58.1655 14.6943 58.2202 14.8311C58.2772 14.9678 58.3547 15.0885 58.4526 15.1934C58.5529 15.305 58.6737 15.3927 58.8149 15.4565C58.9562 15.5203 59.1123 15.5522 59.2832 15.5522C59.5088 15.5522 59.7093 15.5067 59.8848 15.4155C60.0602 15.3244 60.2061 15.2036 60.3223 15.0532L60.7085 15.354C60.5854 15.5409 60.4009 15.7072 60.1548 15.853C59.911 15.9966 59.609 16.0684 59.249 16.0684ZM59.167 12.7529C59.0394 12.7529 58.9186 12.7769 58.8047 12.8247C58.6908 12.8703 58.5882 12.9375 58.4971 13.0264C58.4059 13.1175 58.3285 13.2292 58.2646 13.3613C58.2031 13.4912 58.1598 13.6416 58.1348 13.8125H60.124V13.7817C60.124 13.6678 60.1024 13.5459 60.0591 13.416C60.0158 13.2839 59.9554 13.1699 59.8779 13.0742C59.8005 12.9785 59.7025 12.901 59.584 12.8418C59.4678 12.7826 59.3288 12.7529 59.167 12.7529ZM63.4531 16.0684C63.1934 16.0684 62.9541 16.0239 62.7354 15.9351C62.5189 15.8462 62.3332 15.722 62.1782 15.5625C62.0233 15.403 61.9025 15.2139 61.8159 14.9951C61.7293 14.7764 61.686 14.5382 61.686 14.2808V14.1372C61.686 13.8387 61.7339 13.5721 61.8296 13.3374C61.9253 13.1004 62.0529 12.8999 62.2124 12.7358C62.3696 12.5741 62.5485 12.4499 62.749 12.3633C62.9518 12.2767 63.1592 12.2334 63.3711 12.2334C63.6377 12.2334 63.8701 12.2801 64.0684 12.3735C64.2689 12.4647 64.4352 12.5911 64.5674 12.7529C64.6995 12.917 64.7975 13.1095 64.8613 13.3306C64.9274 13.5516 64.9604 13.7909 64.9604 14.0483V14.332H62.3184V14.356C62.3343 14.536 62.3696 14.6943 62.4243 14.8311C62.4813 14.9678 62.5588 15.0885 62.6567 15.1934C62.757 15.305 62.8778 15.3927 63.019 15.4565C63.1603 15.5203 63.3164 15.5522 63.4873 15.5522C63.7129 15.5522 63.9134 15.5067 64.0889 15.4155C64.2643 15.3244 64.4102 15.2036 64.5264 15.0532L64.9126 15.354C64.7896 15.5409 64.605 15.7072 64.3589 15.853C64.1151 15.9966 63.8132 16.0684 63.4531 16.0684ZM63.3711 12.7529C63.2435 12.7529 63.1227 12.7769 63.0088 12.8247C62.8949 12.8703 62.7923 12.9375 62.7012 13.0264C62.61 13.1175 62.5326 13.2292 62.4688 13.3613C62.4072 13.4912 62.3639 13.6416 62.3389 13.8125H64.3281V13.7817C64.3281 13.6678 64.3065 13.5459 64.2632 13.416C64.2199 13.2839 64.1595 13.1699 64.082 13.0742C64.0046 12.9785 63.9066 12.901 63.7881 12.8418C63.6719 12.7826 63.5329 12.7529 63.3711 12.7529ZM68.4468 12.2334C68.563 12.2334 68.6838 12.2414 68.8091 12.2573C68.9367 12.2733 69.0324 12.2949 69.0962 12.3223L69.0107 12.9409C68.8877 12.9136 68.7703 12.8942 68.6587 12.8828C68.5493 12.8691 68.4342 12.8623 68.3135 12.8623C68.1585 12.8623 68.0184 12.8817 67.8931 12.9204C67.7677 12.9569 67.6584 13.0116 67.5649 13.0845C67.4806 13.1483 67.4066 13.2269 67.3428 13.3203C67.2812 13.4115 67.23 13.514 67.189 13.6279V16H66.5532V12.3018H67.1548L67.1821 12.7974L67.1855 12.8896C67.3359 12.6868 67.516 12.5273 67.7256 12.4111C67.9375 12.2926 68.1779 12.2334 68.4468 12.2334ZM70.3267 12.3018H72.2168V15.4531H73.4233V16H70.3267V15.4531H71.5845V12.8521H70.3267V12.3018ZM71.5024 11.3311C71.5024 11.2764 71.5104 11.2251 71.5264 11.1772C71.5446 11.1294 71.5719 11.0884 71.6084 11.0542C71.638 11.0246 71.6756 11.0018 71.7212 10.9858C71.769 10.9676 71.8226 10.9585 71.8818 10.9585C71.9411 10.9585 71.9935 10.9676 72.0391 10.9858C72.0846 11.0018 72.1222 11.0246 72.1519 11.0542C72.1883 11.0861 72.2157 11.126 72.2339 11.1738C72.2521 11.2217 72.2612 11.2741 72.2612 11.3311C72.2612 11.4336 72.2293 11.519 72.1655 11.5874C72.1017 11.6558 72.0072 11.6899 71.8818 11.6899C71.7542 11.6899 71.6585 11.6558 71.5947 11.5874C71.5332 11.519 71.5024 11.4336 71.5024 11.3311ZM74.4316 16V12.3018H74.999L75.0435 12.8486C75.0981 12.7712 75.1574 12.7005 75.2212 12.6367C75.2873 12.5706 75.3568 12.5137 75.4297 12.4658C75.5391 12.3929 75.6576 12.3371 75.7852 12.2983C75.915 12.2573 76.0518 12.2357 76.1953 12.2334C76.389 12.2334 76.5645 12.2607 76.7217 12.3154C76.8812 12.3701 77.0168 12.4556 77.1284 12.5718C77.2401 12.688 77.3255 12.8361 77.3848 13.0161C77.4463 13.1938 77.4771 13.4058 77.4771 13.6519V16H76.8447V13.6655C76.8447 13.5015 76.8265 13.3625 76.79 13.2485C76.7536 13.1346 76.7 13.0423 76.6294 12.9717C76.5565 12.901 76.4676 12.8498 76.3628 12.8179C76.2603 12.786 76.1418 12.77 76.0073 12.77C75.8911 12.77 75.7829 12.7871 75.6826 12.8213C75.5824 12.8532 75.4901 12.8976 75.4058 12.9546C75.3374 13.0047 75.2736 13.0628 75.2144 13.1289C75.1574 13.195 75.1073 13.2679 75.064 13.3477V16H74.4316ZM78.5195 14.1201C78.5195 13.8444 78.5526 13.5915 78.6187 13.3613C78.687 13.1289 78.785 12.9295 78.9126 12.7632C79.0402 12.5968 79.1951 12.467 79.3774 12.3735C79.5597 12.2801 79.766 12.2334 79.9961 12.2334C80.1442 12.2334 80.2798 12.2505 80.4028 12.2847C80.5282 12.3188 80.641 12.369 80.7412 12.4351C80.7959 12.4692 80.8472 12.5091 80.895 12.5547C80.9451 12.6003 80.9919 12.6504 81.0352 12.7051L81.0659 12.3018H81.6401V15.9214C81.6401 16.1652 81.6014 16.3817 81.5239 16.5708C81.4487 16.7599 81.3428 16.9206 81.2061 17.0527C81.0671 17.1849 80.9019 17.2852 80.7104 17.3535C80.519 17.4219 80.3071 17.4561 80.0747 17.4561C79.979 17.4561 79.8696 17.4447 79.7466 17.4219C79.6235 17.4014 79.4993 17.366 79.374 17.3159C79.2464 17.2681 79.1234 17.2031 79.0049 17.1211C78.8887 17.0391 78.7884 16.9377 78.7041 16.8169L79.0322 16.4375C79.1097 16.5309 79.1895 16.6095 79.2715 16.6733C79.3535 16.7394 79.4367 16.7918 79.521 16.8306C79.6053 16.8693 79.6896 16.8966 79.7739 16.9126C79.8582 16.9308 79.9425 16.9399 80.0269 16.9399C80.1772 16.9399 80.3128 16.9183 80.4336 16.875C80.5544 16.8317 80.658 16.7679 80.7446 16.6836C80.8289 16.6016 80.8939 16.499 80.9395 16.376C80.985 16.2529 81.0078 16.1117 81.0078 15.9521V15.6343C80.96 15.689 80.9087 15.7391 80.854 15.7847C80.8016 15.8302 80.7446 15.8701 80.6831 15.9043C80.5874 15.9567 80.4814 15.9966 80.3652 16.0239C80.249 16.0535 80.1237 16.0684 79.9893 16.0684C79.7637 16.0684 79.5597 16.0205 79.3774 15.9248C79.1951 15.8291 79.0413 15.6969 78.916 15.5283C78.7884 15.3597 78.6904 15.1615 78.6221 14.9336C78.5537 14.7035 78.5195 14.4562 78.5195 14.1919V14.1201ZM79.1519 14.1919C79.1519 14.3719 79.1701 14.5428 79.2065 14.7046C79.2453 14.8664 79.3057 15.0088 79.3877 15.1318C79.4674 15.2549 79.57 15.3529 79.6953 15.4258C79.8206 15.4964 79.971 15.5317 80.1465 15.5317C80.2559 15.5317 80.3538 15.5192 80.4404 15.4941C80.5293 15.4668 80.609 15.4292 80.6797 15.3813C80.748 15.3335 80.8096 15.2765 80.8643 15.2104C80.9189 15.1444 80.9668 15.0715 81.0078 14.9917V13.2964C80.9668 13.2189 80.9189 13.1483 80.8643 13.0845C80.8096 13.0207 80.7469 12.9648 80.6763 12.917C80.6056 12.8714 80.527 12.8361 80.4404 12.811C80.3538 12.7837 80.2581 12.77 80.1533 12.77C79.9756 12.77 79.8229 12.8065 79.6953 12.8794C79.57 12.9523 79.4674 13.0503 79.3877 13.1733C79.3057 13.2987 79.2453 13.4434 79.2065 13.6074C79.1701 13.7692 79.1519 13.9401 79.1519 14.1201V14.1919ZM39.1992 21.7422C39.1992 21.5895 39.1639 21.4608 39.0933 21.356C39.0249 21.2511 38.936 21.1623 38.8267 21.0894C38.7173 21.0187 38.5965 20.9595 38.4644 20.9116C38.3345 20.8638 38.2091 20.8205 38.0884 20.7817C37.9129 20.7248 37.734 20.6564 37.5518 20.5767C37.3717 20.4946 37.2077 20.3966 37.0596 20.2827C36.9092 20.1665 36.7861 20.0298 36.6904 19.8726C36.597 19.7131 36.5503 19.5262 36.5503 19.312C36.5503 19.0978 36.597 18.9064 36.6904 18.7378C36.7861 18.5692 36.9103 18.4268 37.063 18.3105C37.2157 18.1943 37.3888 18.1066 37.5825 18.0474C37.7762 17.9858 37.971 17.9551 38.167 17.9551C38.3835 17.9551 38.592 17.9915 38.7925 18.0645C38.993 18.1351 39.1707 18.2354 39.3257 18.3652C39.4806 18.4951 39.6048 18.6523 39.6982 18.8369C39.7917 19.0215 39.8407 19.2277 39.8452 19.4556H39.1958C39.1776 19.312 39.1423 19.1821 39.0898 19.0659C39.0374 18.9474 38.9679 18.846 38.8813 18.7617C38.7948 18.6774 38.6911 18.6125 38.5703 18.5669C38.4518 18.519 38.3174 18.4951 38.167 18.4951C38.0462 18.4951 37.9277 18.5122 37.8115 18.5464C37.6976 18.5806 37.5962 18.6318 37.5073 18.7002C37.4162 18.7686 37.3433 18.8529 37.2886 18.9531C37.2362 19.0534 37.21 19.1696 37.21 19.3018C37.2122 19.4453 37.2487 19.5672 37.3193 19.6675C37.39 19.7655 37.48 19.8486 37.5894 19.917C37.6965 19.9854 37.8127 20.0423 37.938 20.0879C38.0656 20.1335 38.1852 20.1733 38.2969 20.2075C38.4814 20.2645 38.666 20.334 38.8506 20.416C39.0352 20.4958 39.2038 20.5983 39.3564 20.7236C39.5068 20.8398 39.6276 20.9823 39.7188 21.1509C39.8122 21.3195 39.8589 21.5143 39.8589 21.7354C39.8589 21.9587 39.8088 22.1535 39.7085 22.3198C39.6105 22.4862 39.4829 22.624 39.3257 22.7334C39.1685 22.8451 38.9907 22.9294 38.7925 22.9863C38.5942 23.041 38.396 23.0684 38.1978 23.0684C37.9608 23.0684 37.7272 23.0285 37.4971 22.9487C37.2692 22.869 37.071 22.7539 36.9023 22.6035C36.752 22.4736 36.6323 22.3221 36.5435 22.1489C36.4569 21.9735 36.4102 21.7786 36.4033 21.5645H37.0493C37.0698 21.7194 37.112 21.8573 37.1758 21.978C37.2396 22.0965 37.3216 22.1968 37.4219 22.2788C37.5221 22.3631 37.6372 22.4269 37.7671 22.4702C37.8993 22.5112 38.0428 22.5317 38.1978 22.5317C38.3208 22.5317 38.4416 22.5169 38.5601 22.4873C38.6808 22.4554 38.7879 22.4064 38.8813 22.3403C38.9748 22.2765 39.0511 22.1956 39.1104 22.0977C39.1696 21.9974 39.1992 21.8789 39.1992 21.7422ZM42.4326 23.0684C42.1729 23.0684 41.9336 23.0239 41.7148 22.9351C41.4984 22.8462 41.3127 22.722 41.1577 22.5625C41.0028 22.403 40.882 22.2139 40.7954 21.9951C40.7088 21.7764 40.6655 21.5382 40.6655 21.2808V21.1372C40.6655 20.8387 40.7134 20.5721 40.8091 20.3374C40.9048 20.1004 41.0324 19.8999 41.1919 19.7358C41.3491 19.5741 41.528 19.4499 41.7285 19.3633C41.9313 19.2767 42.1387 19.2334 42.3506 19.2334C42.6172 19.2334 42.8496 19.2801 43.0479 19.3735C43.2484 19.4647 43.4147 19.5911 43.5469 19.7529C43.679 19.917 43.777 20.1095 43.8408 20.3306C43.9069 20.5516 43.9399 20.7909 43.9399 21.0483V21.332H41.2979V21.356C41.3138 21.536 41.3491 21.6943 41.4038 21.8311C41.4608 21.9678 41.5382 22.0885 41.6362 22.1934C41.7365 22.305 41.8573 22.3927 41.9985 22.4565C42.1398 22.5203 42.2959 22.5522 42.4668 22.5522C42.6924 22.5522 42.8929 22.5067 43.0684 22.4155C43.2438 22.3244 43.3896 22.2036 43.5059 22.0532L43.8921 22.354C43.769 22.5409 43.5845 22.7072 43.3384 22.853C43.0946 22.9966 42.7926 23.0684 42.4326 23.0684ZM42.3506 19.7529C42.223 19.7529 42.1022 19.7769 41.9883 19.8247C41.8743 19.8703 41.7718 19.9375 41.6807 20.0264C41.5895 20.1175 41.512 20.2292 41.4482 20.3613C41.3867 20.4912 41.3434 20.6416 41.3184 20.8125H43.3076V20.7817C43.3076 20.6678 43.286 20.5459 43.2427 20.416C43.1994 20.2839 43.139 20.1699 43.0615 20.0742C42.984 19.9785 42.8861 19.901 42.7676 19.8418C42.6514 19.7826 42.5124 19.7529 42.3506 19.7529ZM47.4263 19.2334C47.5425 19.2334 47.6632 19.2414 47.7886 19.2573C47.9162 19.2733 48.0119 19.2949 48.0757 19.3223L47.9902 19.9409C47.8672 19.9136 47.7498 19.8942 47.6382 19.8828C47.5288 19.8691 47.4137 19.8623 47.293 19.8623C47.138 19.8623 46.9979 19.8817 46.8726 19.9204C46.7472 19.9569 46.6379 20.0116 46.5444 20.0845C46.4601 20.1483 46.3861 20.2269 46.3223 20.3203C46.2607 20.4115 46.2095 20.514 46.1685 20.6279V23H45.5327V19.3018H46.1343L46.1616 19.7974L46.165 19.8896C46.3154 19.6868 46.4954 19.5273 46.7051 19.4111C46.917 19.2926 47.1574 19.2334 47.4263 19.2334ZM50.4683 23L48.9473 19.3018H49.5967L50.6562 22.0908L50.7144 22.3198L50.7759 22.0908L51.8115 19.3018H52.4575L50.9502 23H50.4683ZM53.5103 19.3018H55.4004V22.4531H56.6069V23H53.5103V22.4531H54.7681V19.8521H53.5103V19.3018ZM54.686 18.3311C54.686 18.2764 54.694 18.2251 54.71 18.1772C54.7282 18.1294 54.7555 18.0884 54.792 18.0542C54.8216 18.0246 54.8592 18.0018 54.9048 17.9858C54.9526 17.9676 55.0062 17.9585 55.0654 17.9585C55.1247 17.9585 55.1771 17.9676 55.2227 17.9858C55.2682 18.0018 55.3058 18.0246 55.3354 18.0542C55.3719 18.0861 55.3993 18.126 55.4175 18.1738C55.4357 18.2217 55.4448 18.2741 55.4448 18.3311C55.4448 18.4336 55.4129 18.519 55.3491 18.5874C55.2853 18.6558 55.1908 18.6899 55.0654 18.6899C54.9378 18.6899 54.8421 18.6558 54.7783 18.5874C54.7168 18.519 54.686 18.4336 54.686 18.3311ZM59.1909 22.5557C59.3049 22.5557 59.4154 22.5374 59.5225 22.501C59.6318 22.4645 59.7287 22.4132 59.813 22.3472C59.8973 22.2834 59.9645 22.2082 60.0146 22.1216C60.0671 22.0327 60.0944 21.937 60.0967 21.8345H60.6948C60.6925 21.9985 60.6493 22.1558 60.5649 22.3062C60.4829 22.4543 60.3724 22.5841 60.2334 22.6958C60.0944 22.8097 59.9349 22.9009 59.7549 22.9692C59.5749 23.0353 59.3869 23.0684 59.1909 23.0684C58.9106 23.0684 58.6657 23.0182 58.4561 22.918C58.2464 22.8177 58.0721 22.6821 57.9331 22.5112C57.7918 22.3426 57.6859 22.1478 57.6152 21.9268C57.5446 21.7035 57.5093 21.4688 57.5093 21.2227V21.0791C57.5093 20.8353 57.5446 20.6017 57.6152 20.3784C57.6859 20.1551 57.7918 19.958 57.9331 19.7871C58.0721 19.6185 58.2464 19.484 58.4561 19.3838C58.6657 19.2835 58.9106 19.2334 59.1909 19.2334C59.4097 19.2334 59.6102 19.2687 59.7925 19.3394C59.9771 19.4077 60.1366 19.5011 60.271 19.6196C60.4032 19.7404 60.5068 19.8828 60.582 20.0469C60.6572 20.2109 60.6948 20.3864 60.6948 20.5732H60.0967C60.0944 20.4616 60.0693 20.3568 60.0215 20.2588C59.9759 20.1585 59.9132 20.0708 59.8335 19.9956C59.7537 19.9204 59.658 19.8612 59.5464 19.8179C59.437 19.7746 59.3185 19.7529 59.1909 19.7529C58.995 19.7529 58.8298 19.7928 58.6953 19.8726C58.5632 19.95 58.4561 20.0514 58.374 20.1768C58.292 20.3044 58.2327 20.4468 58.1963 20.604C58.1621 20.7612 58.145 20.9196 58.145 21.0791V21.2227C58.145 21.3844 58.1621 21.5451 58.1963 21.7046C58.2327 21.8618 58.292 22.0031 58.374 22.1284C58.4538 22.256 58.5597 22.3597 58.6919 22.4395C58.8263 22.5169 58.9927 22.5557 59.1909 22.5557ZM63.4531 23.0684C63.1934 23.0684 62.9541 23.0239 62.7354 22.9351C62.5189 22.8462 62.3332 22.722 62.1782 22.5625C62.0233 22.403 61.9025 22.2139 61.8159 21.9951C61.7293 21.7764 61.686 21.5382 61.686 21.2808V21.1372C61.686 20.8387 61.7339 20.5721 61.8296 20.3374C61.9253 20.1004 62.0529 19.8999 62.2124 19.7358C62.3696 19.5741 62.5485 19.4499 62.749 19.3633C62.9518 19.2767 63.1592 19.2334 63.3711 19.2334C63.6377 19.2334 63.8701 19.2801 64.0684 19.3735C64.2689 19.4647 64.4352 19.5911 64.5674 19.7529C64.6995 19.917 64.7975 20.1095 64.8613 20.3306C64.9274 20.5516 64.9604 20.7909 64.9604 21.0483V21.332H62.3184V21.356C62.3343 21.536 62.3696 21.6943 62.4243 21.8311C62.4813 21.9678 62.5588 22.0885 62.6567 22.1934C62.757 22.305 62.8778 22.3927 63.019 22.4565C63.1603 22.5203 63.3164 22.5522 63.4873 22.5522C63.7129 22.5522 63.9134 22.5067 64.0889 22.4155C64.2643 22.3244 64.4102 22.2036 64.5264 22.0532L64.9126 22.354C64.7896 22.5409 64.605 22.7072 64.3589 22.853C64.1151 22.9966 63.8132 23.0684 63.4531 23.0684ZM63.3711 19.7529C63.2435 19.7529 63.1227 19.7769 63.0088 19.8247C62.8949 19.8703 62.7923 19.9375 62.7012 20.0264C62.61 20.1175 62.5326 20.2292 62.4688 20.3613C62.4072 20.4912 62.3639 20.6416 62.3389 20.8125H64.3281V20.7817C64.3281 20.6678 64.3065 20.5459 64.2632 20.416C64.2199 20.2839 64.1595 20.1699 64.082 20.0742C64.0046 19.9785 63.9066 19.901 63.7881 19.8418C63.6719 19.7826 63.5329 19.7529 63.3711 19.7529Z" fill="white"/>
</svg>
